<svg width="300" height="200" viewBox="0 0 300 200" xmlns="http://www.w3.org/2000/svg">
  <defs>
    <linearGradient id="screenGlow2" x1="0%" y1="0%" x2="100%" y2="100%">
      <stop offset="0%" style="stop-color:#00ff88;stop-opacity:0.8" />
      <stop offset="100%" style="stop-color:#64ffda;stop-opacity:0.6" />
    </linearGradient>
    <filter id="glow2">
      <feGaussianBlur stdDeviation="2" result="coloredBlur"/>
      <feMerge> 
        <feMergeNode in="coloredBlur"/>
        <feMergeNode in="SourceGraphic"/>
      </feMerge>
    </filter>
  </defs>
  
  <!-- Laptop base -->
  <rect x="20" y="120" width="260" height="70" rx="10" fill="#2d3748"/>
  <rect x="30" y="130" width="240" height="50" rx="5" fill="#1a1f2e"/>
  
  <!-- Laptop screen -->
  <rect x="40" y="30" width="220" height="140" rx="8" fill="#0f1419" stroke="#2d3748" stroke-width="2"/>
  <rect x="50" y="40" width="200" height="120" rx="4" fill="#0a0e1a"/>
  
  <!-- Screen content -->
  <rect x="55" y="45" width="190" height="110" fill="url(#screenGlow2)" opacity="0.2"/>
  
  <!-- Code on screen -->
  <text x="65" y="65" font-family="monospace" font-size="8" fill="#00ff88">class FullStackDev {</text>
  <text x="75" y="80" font-family="monospace" font-size="8" fill="#64ffda">constructor() {</text>
  <text x="85" y="95" font-family="monospace" font-size="8" fill="#ffd700">this.name = 'Himanshu';</text>
  <text x="85" y="110" font-family="monospace" font-size="8" fill="#ffd700">this.skills = ['PHP', 'Laravel'];</text>
  <text x="75" y="125" font-family="monospace" font-size="8" fill="#64ffda">}</text>
  <text x="65" y="140" font-family="monospace" font-size="8" fill="#00ff88">}</text>
  
  <!-- Cursor -->
  <rect x="90" y="145" width="2" height="8" fill="#00ff88">
    <animate attributeName="opacity" values="1;0;1" dur="1s" repeatCount="indefinite"/>
  </rect>
  
  <!-- Keyboard -->
  <rect x="70" y="155" width="160" height="8" rx="2" fill="#2d3748"/>
  
  <!-- Trackpad -->
  <rect x="135" y="170" width="30" height="20" rx="3" fill="#1a1f2e"/>
  
  <!-- Floating code elements -->
  <g opacity="0.6" filter="url(#glow2)">
    <text x="10" y="50" font-family="monospace" font-size="10" fill="#00ff88" transform="rotate(-15 10 50)">&lt;?php</text>
    <text x="270" y="80" font-family="monospace" font-size="10" fill="#64ffda" transform="rotate(10 270 80)">API</text>
    <text x="10" y="150" font-family="monospace" font-size="10" fill="#ffd700" transform="rotate(-10 10 150)">MySQL</text>
  </g>
</svg>